<svg fill="none" height="30" viewBox="0 0 30 30" width="30" xmlns="http://www.w3.org/2000/svg" xmlns:xlink="http://www.w3.org/1999/xlink"><clipPath id="a"><path d="m4 6h22v17h-22z"/></clipPath><g clip-path="url(#a)"><path d="m20.3167 9.54447h3.3l-1.2834-1.44535h-18.3333v11.80368c0 .4817.40333.8603.91667.8603h20.16663c.5134 0 .9167-.3786.9167-.8603v-3.8543h-3.0433c-.4034 0-.6967-.1376-.6967-.4818 0-.3785.33-.4817.6967-.4817h3.0433v-1.3077h-5.6833c-.4034 0-.6967-.3098-.6967-.6539v-2.8907c0-.37852.33-.68823.6967-.68823z" fill="#f7422f"/><path d="m19.6199 10.1985v2.9251c0 .3441.2933.6538.6966.6538h5.6834v-1.5142l-2.3834-2.68416h-3.3c-.3666-.03442-.6966.2753-.6966.61946z" fill="#e49b93"/><path d="m22.6634 16.0485h3.3367v-.998h-3.3734c-.22 0-.4033.1377-.4033.3442v.3441c.0367.2065.1833.3097.44.3097z" fill="#e49b93"/><path d="m16.54 16.496h-12.35667c-.11 0-.18333-.0689-.18333-.1721v-9.39475c0-.51619.44-.92915.99-.92915h11.55c.55 0 .99.41296.99.92915v8.67205c-.0367.4818-.4767.8948-.99.8948z" fill="#fac75a"/><path d="m7.99667 11.85h-3.99667v-.9979h3.99667c.29333 0 .51333.2408.51333.4817.03667.2753-.22.5162-.51333.5162z" fill="#cfa750"/><path d="m9.57333 13.6054h-5.57333v-.998h5.57333c.29334 0 .51337.2409.51337.4818 0 .2753-.22003.5162-.51337.5162z" fill="#cfa750"/><path d="m8.69339 23.0001c1.31631 0 2.38331-1.0015 2.38331-2.2369s-1.067-2.2368-2.38331-2.2368c-1.31628 0-2.38333 1.0014-2.38333 2.2368s1.06705 2.2369 2.38333 2.2369z" fill="#5a5d5d"/><path d="m8.6934 21.8987c.66826 0 1.21-.5084 1.21-1.1356s-.54174-1.1357-1.21-1.1357c-.66827 0-1.21.5085-1.21 1.1357s.54173 1.1356 1.21 1.1356z" fill="#e7e6e5"/><path d="m21.4168 23.0001c1.3163 0 2.3833-1.0015 2.3833-2.2369s-1.067-2.2368-2.3833-2.2368-2.3834 1.0014-2.3834 2.2368 1.0671 2.2369 2.3834 2.2369z" fill="#5a5d5d"/><path d="m21.4168 21.8987c.6683 0 1.21-.5084 1.21-1.1356s-.5417-1.1357-1.21-1.1357-1.21.5085-1.21 1.1357.5417 1.1356 1.21 1.1356z" fill="#e7e6e5"/></g></svg>