<svg id="圖層_1" data-name="圖層 1" xmlns="http://www.w3.org/2000/svg" viewBox="0 0 181.58 71.39"><defs><style>.cls-1{fill:#fff;}</style></defs><title>MHlogo</title><path class="cls-1" d="M28.36,42.58a11.9,11.9,0,0,0-1.86-1.73A47.1,47.1,0,0,0,30,30.09c.09-.38.14-.65-.47-1.12l-.94-.75a1.78,1.78,0,0,1-1.4.45H26.08c.51-2,.93-3.83,1.15-5,.1-.45,0-.68-.73-.86l-1.36-.35c-.3,1.75-.75,3.94-1.28,6.19H20.58c.34,1.15.37,1.48.84,1.48h2.07a69.56,69.56,0,0,1-3.26,10.29c1.1.51,2,.41,2.58-.74.49.47,1,1,1.47,1.51A26.7,26.7,0,0,1,19,48.33c-.36.38.07.65.41.44a19.7,19.7,0,0,0,6.11-6.13c.44.56.9,1.18,1.38,1.81C28.32,46.43,29.7,44.15,28.36,42.58Zm-3.43-2.79c-.53-.35-1.12-.71-1.71-1.07.82-2.31,1.73-5.57,2.5-8.57h2A43,43,0,0,1,24.93,39.79Z"/><path class="cls-1" d="M39.07,37.33c2.19-1.07,4.54-2.49,5.48-3.08.63-.42.61-.54.06-1.07l-1-1a31,31,0,0,1-5,4.39l-.18-.36a14.83,14.83,0,0,0-1.8-3.05c.61-.54,1.19-1.07,1.71-1.63h3.56c1.09,0,1.65-.3,1.71-.95,0-.42-.35-.75-1-1.4-.61.63-1,.9-1.41.9H31.59c.4,1.21.53,1.45,1.06,1.45h3.19a25,25,0,0,1-6.25,4.8c-.37.21-.36.71.22.54a19,19,0,0,0,5.82-2.94,10.13,10.13,0,0,1,.48.92,29.41,29.41,0,0,1-7.33,6.34c-.44.27-.24.72.25.54a23.34,23.34,0,0,0,7.8-4.89,11.27,11.27,0,0,1,.33,1.3,41,41,0,0,1-9.89,8.45c-.38.21-.27.71.19.56a26.57,26.57,0,0,0,10-6.29c0,2.76-.82,4.9-1.47,5.58-.39.42-.49.51-3.16.27-.32,0-.5.3-.24.41a7.89,7.89,0,0,1,2.26,1.54,1.23,1.23,0,0,0,1.75.24c1.75-1,3.08-3.73,2.79-8.42v-.2A18.87,18.87,0,0,0,43,45.18c.87.83,1,.81,2.14.18l.78-.41c.28-.15.32-.21,0-.45A22.68,22.68,0,0,1,39.07,37.33Z"/><path class="cls-1" d="M45.31,25.26a1.79,1.79,0,0,1-1.2.48H39.72a1.41,1.41,0,0,0,.09-2,5.22,5.22,0,0,0-2.63-1.34c-.38-.11-.64.07-.4.48l1.28,2.25a2.06,2.06,0,0,0,.48.6H33.71l.06-.63c0-.27-.41-.35-.56,0a11.44,11.44,0,0,1-2.38,3.14c-1.4,1.46,1,2.55,2.12.54a4.61,4.61,0,0,0,.54-1.52H44.13c-.29.63-.58,1.22-.83,1.73-.15.32.06.56.44.3.86-.66,1.78-1.43,2.52-2.05.45-.39.41-.59-.11-1.13Z"/><path class="cls-1" d="M72.33,34.4H78.9c1,0,1.7-.36,1.75-1,0-.47-.4-.8-1-1.45-.62.63-.91.92-1.5.92H71.35C71.74,34.1,71.86,34.4,72.33,34.4Z"/><path class="cls-1" d="M66.45,23.09l-1.2-.79a32,32,0,0,1-3.06,5.89A16.31,16.31,0,0,0,60.63,27c-.33-.2-.57.09-.43.45.4.94,1.1,2.76,1.6,3.79,1,2.13,3,.3,1.9-1.4a9.78,9.78,0,0,0-.86-1,41.63,41.63,0,0,0,4-4.62C67.22,23.69,67.15,23.57,66.45,23.09Z"/><path class="cls-1" d="M66.93,38.93c-.21-.33-.58-.15-.55.27.06,1.24.14,3.17.33,4.59.29,2.07,2.57.77,2-1.21A13.44,13.44,0,0,0,66.93,38.93Z"/><path class="cls-1" d="M80.2,28.05a27.06,27.06,0,0,1-2.29-3.68,6.61,6.61,0,0,0,.36-.62c.17-.33.1-.48-.52-.83l-1.36-.77a47.23,47.23,0,0,1-7.73,11.53.31.31,0,0,0,.38.48c2.71-1.61,6.14-5.55,8.26-8.78a19.67,19.67,0,0,0,1.62,3.76,20.38,20.38,0,0,0,3.54,5c.76.71,1,.62,3.21-.54.16-.09.26-.23-.08-.44A20.46,20.46,0,0,1,80.2,28.05Z"/><path class="cls-1" d="M81.42,37.48l-1.87-.65c-.49.5-.74.68-1.3.68H72.47c0-.18-.15-.3-.47-.39l-1.77-.38L69.14,49.16c1.17.18,2.33-.21,2.46-1.63l.08-1h7l-.22,2.58c1.29.09,2.33-.24,2.44-1.51l.73-8.39C81.71,38.51,82.6,37.89,81.42,37.48Zm-2.58,7.44h-7l.51-5.84h7Z"/><path class="cls-1" d="M61.71,39.38l-1.34-.63c-.79,3-1.55,5.55-2.44,8-.12.3.2.65.5.3a35.91,35.91,0,0,0,3.67-6.68C62.39,39.73,62.37,39.67,61.71,39.38Z"/><path class="cls-1" d="M69.27,35.81A9.45,9.45,0,0,0,67,32.58c-.22-.2-.59,0-.51.39s.26,1.16.4,1.9c-1.2.24-2.61.44-4.23.65a46.3,46.3,0,0,0,6.15-6.67c.3-.42.28-.51-.25-.92l-1.3-1a38.42,38.42,0,0,1-5.92,8.78c-.84.11-1.74.23-2.7.38,1.08,1.9,1.16,2,2,1.73s1.68-.54,2.59-.83l-1,12a1.83,1.83,0,0,0,2.45-1.51l1-11.24c.49-.15,1-.3,1.43-.47.08.44.19.89.3,1.3C67.91,39.2,70,37.77,69.27,35.81Z"/><path class="cls-1" d="M108.25,33.92a6.7,6.7,0,0,0-2.84-2.34.32.32,0,0,0-.48.41c.36.95.7,2.17,1.17,3.24C107,37.33,109,35.37,108.25,33.92Z"/><path class="cls-1" d="M120.61,29.71h-8.46l.23-2.7h5.84c1.09,0,1.71-.27,1.77-1,0-.44-.4-.8-1.08-1.48-.59.65-1,.92-1.53.92h-4.86l.2-2.35c0-.17-.14-.35-.46-.41l-2-.38L110,25.44h-8.26c.42,1.27.57,1.57,1.17,1.57h7l-.23,2.7H98.2c.42,1.3.57,1.6,1.19,1.6h14.72a35.31,35.31,0,0,1-2.51,5H99.91c.41,1.33.53,1.63,1.18,1.63h7.85l-.25,2.85H96.88c.45,1.3.6,1.6,1.22,1.6h10.45l-.6,6.79a2,2,0,0,0,2.7-1.69l.45-5.1h9.68c1.13,0,1.74-.27,1.81-1,0-.48-.4-.83-1.08-1.54-.65.68-.94,1-1.59,1h-8.68l.24-2.85h7c1.13,0,1.72-.23,1.78-1,0-.44-.37-.77-1.07-1.51-.63.68-.91.92-1.57.92h-4.82c.8-.74,2.16-2.07,3.2-3.17.36-.39.38-.57-.12-.89l-1.38-.92h7.05c1.1,0,1.65-.24,1.72-1,0-.48-.37-.83-1-1.54C121.5,29.44,121.21,29.71,120.61,29.71Z"/><path class="cls-1" d="M143.72,25.14A6.22,6.22,0,0,0,141,22.33c-.37-.21-.6.08-.48.41.26.71.69,2.32,1.16,3.65C142.33,28.25,144.27,27,143.72,25.14Z"/><path class="cls-1" d="M159.1,32.53l.31-3.59c.05-.54.85-1.28-.33-1.66l-1.72-.57a1.55,1.55,0,0,1-1.22.68h-4.32a.49.49,0,0,0-.39-.32l-1.79-.41L149,34a1.82,1.82,0,0,0,2.33-1.22h5.51l-.1,1.16C157.78,34.1,159,33.77,159.1,32.53Zm-7.62-1.19.21-2.52h5.48L157,31.34Z"/><path class="cls-1" d="M160.44,23.93H146.73c.46,1.21.58,1.51,1.09,1.51h13.35c1,0,1.51-.3,1.57-1,0-.41-.36-.71-.92-1.34C161.26,23.69,161,23.93,160.44,23.93Z"/><path class="cls-1" d="M145.45,35.23a7.61,7.61,0,0,0-2.22-1.73c1.4-1.75,2.18-3,2.65-3.61s.43-.8-.15-1.34l-1.09-1a1.85,1.85,0,0,1-1.6.71h-6.7c.43,1.25.58,1.55,1,1.55h5.92A27.22,27.22,0,0,1,140.55,34a51.64,51.64,0,0,1-5.09,6,.29.29,0,0,0,.38.44,25.07,25.07,0,0,0,4.37-3.64l-1.08,12.3c1.2.27,2.3-.21,2.42-1.51l1.13-12.9c.36.62.73,1.39,1.26,2.2C145,38.72,146.68,36.68,145.45,35.23Z"/><path class="cls-1" d="M160.07,35l-1.62-.5a1.67,1.67,0,0,1-1.33.68h-7.91c0-.14-.11-.32-.62-.41l-1.59-.3-1.28,14.59c1.26.18,2.29-.15,2.41-1.48l.09-1h9.18l-.21,2.34c1.22.27,2.29-.12,2.41-1.42l.94-10.76C160.61,35.91,161.31,35.4,160.07,35Zm-8.25,10.06h-3.47l.3-3.5h3.47Zm.43-5h-3.47l.3-3.41h3.47Zm5.28,5H154.1l.3-3.5h3.43Zm.43-5h-3.43l.3-3.41h3.43Z"/></svg>