<svg id="圖層_1" data-name="圖層 1" xmlns="http://www.w3.org/2000/svg" viewBox="0 0 214.11 56.65"><defs><style>.cls-1{fill:#3750cc;}.cls-2{fill:#fff;}</style></defs><title>MHlogo</title><rect class="cls-1" width="214.11" height="56.65"/><path class="cls-2" d="M170.7,42.05c.45-.22.92-.51,1.11-.63s.12-.11,0-.21l-.19-.21a6.2,6.2,0,0,1-1,.89l0-.07a3,3,0,0,0-.37-.62l.35-.33h.72c.22,0,.33-.06.34-.19s-.07-.15-.19-.29c-.13.13-.2.18-.29.18h-1.95c.08.25.1.3.21.3h.65a5.18,5.18,0,0,1-1.27,1c-.07,0-.07.14.05.11a3.76,3.76,0,0,0,1.18-.6l.09.19a6.23,6.23,0,0,1-1.48,1.29c-.09.05-.05.14,0,.1a4.66,4.66,0,0,0,1.58-1,2.68,2.68,0,0,1,.07.27,8.48,8.48,0,0,1-2,1.71c-.07,0-.05.14,0,.11a5.35,5.35,0,0,0,2-1.27,1.89,1.89,0,0,1-.3,1.13c-.08.08-.1.1-.64,0-.06,0-.1.06-.05.09a1.38,1.38,0,0,1,.46.31.26.26,0,0,0,.36,0c.35-.21.62-.76.56-1.71v0a3.81,3.81,0,0,0,.74,1c.17.16.19.16.43,0l.16-.08c.06,0,.06,0,0-.09A4.72,4.72,0,0,1,170.7,42.05Z"/><path class="cls-2" d="M168.53,43.11a2.47,2.47,0,0,0-.37-.35,9.6,9.6,0,0,0,.7-2.18c0-.08,0-.13-.1-.23l-.19-.15a.33.33,0,0,1-.28.09h-.22c.1-.41.19-.77.23-1s0-.13-.14-.17l-.28-.07c-.06.35-.15.8-.26,1.25H167c.07.24.07.3.17.3h.42a15,15,0,0,1-.66,2.09.35.35,0,0,0,.52-.15q.15.13.3.3a5.35,5.35,0,0,1-1.08,1.44c-.07.08,0,.13.08.09A3.83,3.83,0,0,0,168,43.12l.28.37C168.53,43.89,168.8,43.43,168.53,43.11Zm-.69-.57-.35-.21c.17-.47.35-1.13.51-1.74h.41A8.87,8.87,0,0,1,167.84,42.54Z"/><path class="cls-2" d="M172,39.6a.33.33,0,0,1-.24.1h-.89a.28.28,0,0,0,0-.4,1,1,0,0,0-.53-.28c-.08,0-.13,0-.08.1l.26.46a.62.62,0,0,0,.09.12h-1v-.13s-.09-.07-.12,0a2,2,0,0,1-.48.63c-.28.3.2.52.43.11a.89.89,0,0,0,.11-.31h2.16l-.17.35c0,.07,0,.12.09.06l.51-.41c.09-.08.08-.12,0-.23Z"/><path class="cls-2" d="M176.34,42.37c0-.07-.11,0-.11.05,0,.26,0,.65.07.93s.52.16.4-.24A2.31,2.31,0,0,0,176.34,42.37Z"/><path class="cls-2" d="M176.82,41.74a1.94,1.94,0,0,0-.47-.66s-.12,0-.1.08.05.24.08.39l-.86.13a9.39,9.39,0,0,0,1.25-1.35c.06-.09.06-.1-.05-.19l-.26-.2a8.24,8.24,0,0,1-1.2,1.78l-.55.07c.22.39.24.41.41.35l.53-.17-.21,2.43a.36.36,0,0,0,.49-.3l.2-2.28.29-.09.06.26C176.54,42.42,177,42.13,176.82,41.74Z"/><path class="cls-2" d="M176.25,39.16,176,39a6.06,6.06,0,0,1-.62,1.2,1.83,1.83,0,0,0-.31-.24c-.07-.05-.12,0-.09.09s.22.55.32.76c.21.44.62.06.39-.28a1.68,1.68,0,0,0-.18-.21,7.46,7.46,0,0,0,.82-.93C176.4,39.28,176.39,39.26,176.25,39.16Z"/><path class="cls-2" d="M179.28,42.08l-.38-.14c-.1.11-.15.14-.26.14h-1.17a.14.14,0,0,0-.1-.08l-.36-.07-.22,2.51c.24,0,.47,0,.5-.33l0-.2h1.42l0,.52c.26,0,.47,0,.5-.31l.14-1.7C179.34,42.29,179.52,42.16,179.28,42.08Zm-.52,1.5h-1.43l.11-1.18h1.42Z"/><path class="cls-2" d="M177.44,41.45h1.33c.21,0,.34-.07.35-.21s-.08-.16-.21-.29c-.12.12-.18.18-.3.18h-1.37C177.32,41.39,177.34,41.45,177.44,41.45Z"/><path class="cls-2" d="M179,40.17a5.62,5.62,0,0,1-.46-.75.75.75,0,0,0,.07-.12c0-.07,0-.1-.11-.17l-.27-.16a9.5,9.5,0,0,1-1.57,2.34c-.05,0,0,.13.08.09a6.34,6.34,0,0,0,1.67-1.77,5,5,0,0,0,.33.76,4.1,4.1,0,0,0,.72,1c.15.14.2.13.65-.11,0,0,.05-.05,0-.09A4.4,4.4,0,0,1,179,40.17Z"/><path class="cls-2" d="M175.29,42.46l-.27-.13c-.17.61-.32,1.13-.5,1.62,0,.06,0,.14.1.06a6.37,6.37,0,0,0,.74-1.35C175.42,42.53,175.42,42.52,175.29,42.46Z"/><path class="cls-2" d="M187.21,40.5H185.5l.05-.54h1.18c.22,0,.35-.06.36-.21s-.08-.16-.22-.3c-.12.13-.2.19-.31.19h-1l0-.48s0-.07-.1-.08l-.4-.08-.05.64h-1.68c.09.26.12.32.24.32H185l0,.54h-2.31c.08.27.11.33.24.33h3a8.42,8.42,0,0,1-.51,1H183c.08.26.11.33.24.33h1.59l0,.57h-2.39c.09.27.12.33.25.33h2.11l-.12,1.37a.4.4,0,0,0,.55-.34l.09-1h2c.23,0,.35-.06.36-.21s-.08-.17-.21-.32c-.14.14-.19.2-.33.2h-1.75l.05-.57h1.4c.23,0,.35-.05.37-.21s-.08-.16-.22-.31c-.13.14-.19.19-.32.19h-1c.17-.16.44-.42.65-.65.07-.08.08-.11,0-.18l-.28-.18h1.43c.22,0,.33,0,.34-.21s-.07-.17-.21-.31C187.39,40.45,187.33,40.5,187.21,40.5Z"/><path class="cls-2" d="M184.71,41.35a1.37,1.37,0,0,0-.57-.47c-.07,0-.13,0-.1.08s.14.44.23.66C184.47,42.05,184.85,41.65,184.71,41.35Z"/><path class="cls-2" d="M195,41.07l.06-.72c0-.11.17-.26-.07-.34l-.34-.11a.34.34,0,0,1-.25.13h-.88s0-.05-.07-.06l-.37-.09L193,41.37a.37.37,0,0,0,.47-.25h1.12l0,.23C194.74,41.39,195,41.32,195,41.07Zm-1.55-.24,0-.51h1.11l-.05.51Z"/><path class="cls-2" d="M195.28,39.33H192.5c.1.25.12.31.22.31h2.71c.19,0,.3-.06.31-.2s-.07-.14-.18-.27C195.45,39.28,195.39,39.33,195.28,39.33Z"/><path class="cls-2" d="M191.89,39.58a1.22,1.22,0,0,0-.55-.57c-.08,0-.12,0-.1.08s.14.47.24.74S192,40,191.89,39.58Z"/><path class="cls-2" d="M195.2,41.58l-.32-.11a.32.32,0,0,1-.27.14H193s0-.06-.13-.08l-.32-.06-.26,3c.25,0,.46,0,.49-.3v-.21h1.86l0,.48c.25,0,.47,0,.49-.29l.19-2.18C195.31,41.76,195.45,41.66,195.2,41.58Zm-1.67,2h-.7l.06-.71h.7Zm.09-1h-.7l.06-.69h.7Zm1.07,1H194l.07-.71h.69Zm.09-1h-.7l.06-.69h.7Z"/><path class="cls-2" d="M192.24,41.62a1.48,1.48,0,0,0-.45-.35,8.63,8.63,0,0,0,.54-.73c.08-.12.09-.16,0-.27l-.22-.21a.39.39,0,0,1-.32.14H190.4c.09.25.12.31.2.31h1.2a5.31,5.31,0,0,1-.55.87,10.45,10.45,0,0,1-1,1.22c-.05,0,0,.14.08.09a5.23,5.23,0,0,0,.88-.74L191,44.44c.25.06.47,0,.49-.31l.23-2.61c.08.13.15.28.26.45C192.16,42.33,192.49,41.91,192.24,41.62Z"/><path class="cls-2" d="M168.44,27.59h.06a.52.52,0,0,0,.53-.53v0a.44.44,0,0,0-.55-.39.51.51,0,0,0-.41.54v0A.38.38,0,0,0,168.44,27.59Z"/><path class="cls-2" d="M112.79,29.48c0-.89-.42-2-1.31-2-.57,0-1,.51-1.33,1-.71.94-1.41,1.88-2.11,2.83a5.51,5.51,0,0,1,.9-3.35c-.26-.47-.92.05-1.3.41a2,2,0,0,1-3.06-.51c-.24-.47-.51-1.16-1-1a.93.93,0,0,0-.41.3,20.18,20.18,0,0,0-1.61,2c.27-.32.5-.9.12-1.09s-.63.18-.89.41a2,2,0,0,1-2.88-.43c-.32-.53-.65-1.35-1.23-1.14a1,1,0,0,0-.41.35l-1.52,1.9c.26-.31.51-.82.19-1.07s-.77.18-1,.54a6.44,6.44,0,0,1-2.83,2.33,1,1,0,0,1-1,0,1,1,0,0,1-.25-.61A5.42,5.42,0,0,1,90,28.12a2.21,2.21,0,0,0-2.28.38,8.4,8.4,0,0,0-1.53,1.88A18.82,18.82,0,0,1,81.63,35a1.35,1.35,0,0,1-1.17.35c-.45-.17-.58-.75-.62-1.23-.22-2.91.51-5.81.58-8.74,0-.58-.07-1.28-.6-1.53s-1.29.3-1.7.86c-2.89,4-3.9,9.05-6.55,13.2.51-7.78,2.84-15.3,4.42-22.93.09-.45.12-1-.3-1.24a1,1,0,0,0-1,.25,9.13,9.13,0,0,0-1.89,2.34c-1,1.73-2.2,3.41-3.26,5.07C66,26.89,61.36,33.24,54.67,35a23.59,23.59,0,0,1-3.66.79l-1.87.1-.94,0-.94,0-1.88-.1-1.87-.28a36.13,36.13,0,0,1-3.69-.78,56.86,56.86,0,0,1-13.88-6,94.33,94.33,0,0,1-12.42-8.72.2.2,0,0,0-.3,0,.22.22,0,0,0,0,.31,94.94,94.94,0,0,0,12.44,8.83,58,58,0,0,0,14,6.11,37.44,37.44,0,0,0,3.75.82l1.9.29,1.92.11,1,.06,1,0,1.92-.09a25.11,25.11,0,0,0,3.78-.79l.93-.29a4.07,4.07,0,0,0,.9-.34l1.76-.81c.58-.29,1.1-.69,1.65-1l.81-.53.76-.6a35.7,35.7,0,0,0,7.4-8.39c2-3.16,3.8-6.49,6.32-9.27-1.5,6.57-3,13.14-4.13,19.79A11,11,0,0,0,71.08,38a.72.72,0,0,0,.2.45c.34.29.82-.13,1-.51,2.31-3.83,3.48-8.27,5.85-12.07a2.61,2.61,0,0,1,1.62-1.39q-.33,4.22-.65,8.41c-.1,1.19.08,2.75,1.24,3a2.37,2.37,0,0,0,1.8-.64,22.9,22.9,0,0,0,4.43-4.31A2,2,0,0,0,89,29.78c-.25.95.88,1.8,1.85,1.68a4.64,4.64,0,0,0,2.46-1.53l-.6,1.87c.13.42.77.11,1-.24,1-1.36,2-2.72,3.07-4.09a3.21,3.21,0,0,0,3.61,1.76l-.94,2.61c.29.39.88,0,1.17-.4l2.94-4a3.36,3.36,0,0,0,3.73,1.78,2.92,2.92,0,0,0-.33,1.49,1,1,0,0,0,1,.92,1.16,1.16,0,0,0,.55-.28c1-.84,1.45-2.26,2.41-3.19a.52.52,0,0,1,.27-.17c.21,0,.39.14.49.32a1.73,1.73,0,0,1-.43,1.87,7,7,0,0,1-1.67,1.14,11.24,11.24,0,0,0-4.61,5.37,2.61,2.61,0,0,0,0,2.61,1.88,1.88,0,0,0,1.82.55,4.05,4.05,0,0,0,1.74-.94,10.37,10.37,0,0,0,3.57-6.22c.21-1.29.4-2.92,1.65-3.31.54-.17,1.34-.19,1.39-.76l-.27,0A5.66,5.66,0,0,0,112.79,29.48Zm-24.56,0a9.72,9.72,0,0,1-.62.77,2.33,2.33,0,0,1,.12-.45c.37-.75.74-1.16,1.06-1.18Zm22.94,4a14.87,14.87,0,0,1-1.11,2.88,13,13,0,0,1-1,1.5,3.75,3.75,0,0,1-2.56,1.64,1.21,1.21,0,0,1-.47-.1,1.24,1.24,0,0,1-.66-1.25c0-1.21.73-2.64,2.17-4.24a17.68,17.68,0,0,1,1.54-1.46,22.06,22.06,0,0,1,2.65-1.81A19.73,19.73,0,0,1,111.17,33.42Z"/><path class="cls-2" d="M139.79,26.46h0l-.88.05c1.29-4.86,2.7-9.49,4.19-13.77l0,0v0a.41.41,0,0,0-.14-.2.32.32,0,0,0-.33-.27l-.27,0,0,0a1.67,1.67,0,0,1-.15.22h0l0,.08c-1.46,4.07-2.87,8.78-4.17,14-.88.09-1.71.2-2.49.32-2.8.44-5.1.89-6.85,1.35,1.1-3.93,2.39-8.2,3.84-12.69l0-.05,0,0a.42.42,0,0,0-.39-.27h-.16a.72.72,0,0,0-.47.23l0,.05c-1.36,4.29-2.61,8.67-3.72,13-5,1.42-7.41,2.72-7.41,4v.08c0,.32.2.5.55.5a.58.58,0,0,0,.55-.34l0-.06a1.54,1.54,0,0,0,0-.26c0-.22.23-.6,1.2-1.2a26.39,26.39,0,0,1,4.93-1.93c-.84,3.29-1.8,7.87-2.46,11.12v.05l0,0a.37.37,0,0,0,.33.17.58.58,0,0,0,.32-.13l0,0v0c.67-3.28,1.7-8,2.64-11.41.53-.17,1.45-.41,2.72-.72a65.17,65.17,0,0,1,6.71-1.13c-.88,3.52-2.26,10.08-3.71,17v.06a.29.29,0,0,0,.31.23h.08a.4.4,0,0,0,.27-.11l0,0v0c1.31-6.17,2.78-12.79,4-17.19a4.51,4.51,0,0,1,.94,0c.11,0,.4-.06.4-.27v-.08C140.06,26.56,139.93,26.51,139.79,26.46Z"/><path class="cls-2" d="M197.22,28.62a.27.27,0,0,0-.28-.17c-.56,0-1.61.7-3.22,2.07a4.83,4.83,0,0,0-.46-.44c-.64-.37-1-.75-1-1.11a2.72,2.72,0,0,1,1.06-1.68c.7-.61.76-.76.76-.85s-.08-.3-.45-.35a.94.94,0,0,0-.7.3c-1.19,1.13-1.45,1.5-1.51,1.67-.83.81-2.15,2-3.93,3.61-.05-.06-.11-.15-.22-.27a8.53,8.53,0,0,0-.88-.69c-.92-.55-1.39-1.13-1.4-1.7l0-.12a3.84,3.84,0,0,1,1.45-2.36c1.13-1,1.13-1.1,1.13-1.19s-.08-.31-.46-.36h0a.89.89,0,0,0-.45.13c-1.88,1.59-2.79,2.81-2.79,3.71a2.34,2.34,0,0,0,0,.26,7.57,7.57,0,0,1-.86.75A5.71,5.71,0,0,1,180.63,31c-.2,0-.4-.06-.4-.47a2.66,2.66,0,0,1,.17-.85,3.49,3.49,0,0,0,.88-.28c.47-.26.7-.57.7-.92a.7.7,0,0,0,0-.23.63.63,0,0,0-.6-.43h-.08a1.26,1.26,0,0,0-.89.52h-.16l0,0c-1.89,1.41-3.2,2.13-3.9,2.13-.27,0-.62-.1-.62-.92v-.31c.23-1.63.25-1.9.25-2v-.09c-.06-.29-.24-.34-.34-.34h0c-.11,0-.29.06-.74.5-.7.79-1.47,1.75-2.28,2.83.28-.73.54-1.36.76-1.88v-.05c0-.1-.05-.27-.4-.32h-.14a.75.75,0,0,0-.36.15l0,.05a2.58,2.58,0,0,1-.58.72c-1.52,1.47-2.68,2.22-3.44,2.22h0c-.1,0-.37,0-.37-.6a5.78,5.78,0,0,1,.47-2c.15-.14.22-.24.22-.35v-.12l0,0a.41.41,0,0,0-.32-.19.73.73,0,0,0-.51.21l0,0c-.09.17-.16.34-.23.5l-.48.13a20.76,20.76,0,0,0-2.48.86,3.72,3.72,0,0,0,.47-1.72l0-.05a1,1,0,0,0-.16-.51,1.49,1.49,0,0,0-1.39-.49c-1.38.09-2.89,1.24-4.51,3.43a19,19,0,0,0-1.4,2.35l.12-.4a37.78,37.78,0,0,1,1.39-4.1c.46-1,.45-1.09.45-1.15a.32.32,0,0,0-.35-.33h0a.82.82,0,0,0-.58.41,13.17,13.17,0,0,0-.57,1.4l-.06.16-.54.14a20.16,20.16,0,0,0-2.48.86,3.57,3.57,0,0,0,.46-1.72v-.05a1,1,0,0,0-.16-.51,1.51,1.51,0,0,0-1.4-.49c-1.37.09-2.88,1.24-4.5,3.43a19,19,0,0,0-1.4,2.35c0-.13.07-.27.11-.4a37.78,37.78,0,0,1,1.39-4.1c.47-1,.46-1.09.45-1.15a.32.32,0,0,0-.37-.33h0a.82.82,0,0,0-.57.41,13.17,13.17,0,0,0-.57,1.4s0,.09,0,.13-.05,0-.08,0c-1.68,1.6-2.87,2.41-3.56,2.41l-.25,0c-.34-.16-.52-.56-.52-1.18V29.6a4.75,4.75,0,0,1,.2-1.26v0c0-.08,0-.28-.38-.3h-.25a1.05,1.05,0,0,0-.45-.12h0a1.94,1.94,0,0,0-1.3.65,3.51,3.51,0,0,0-1,2v.05c0,.18.07.5.57.54s1.21-.45,1.92-1.39a5.86,5.86,0,0,0,.1.79c.23.66.6,1,1.12,1h.12c.77,0,1.84-.59,3.25-1.82l.12-.1A56.92,56.92,0,0,0,146,38c-.23,1.62-.58,4.34-.63,5.6v.06a.24.24,0,0,0,.23.13h0l.06,0c.08,0,.3-.08.27-.22.09-1.28.38-3.4.46-3.84.12-.87.28-1.75.49-2.62a22,22,0,0,1,1.29-3.78A17.83,17.83,0,0,1,150,30.13a12.38,12.38,0,0,1,1.07-1.27,4.65,4.65,0,0,1,2.55-1.52h.26a.6.6,0,0,1,.44.62,2,2,0,0,1-.13.85,8.82,8.82,0,0,1-.63,1.38,21,21,0,0,0-3.14,1.87c-1.16,1-1.7,1.66-1.67,2.21v.1a.63.63,0,0,0,.71.45h.11a3.48,3.48,0,0,0,1.45-.61,10.05,10.05,0,0,0,1.74-1.55,16.33,16.33,0,0,0,1.67-2.35c.28-.13.66-.3,1.16-.5a14.45,14.45,0,0,1,2-.64l.08,0A51.94,51.94,0,0,0,155.62,38c-.23,1.62-.59,4.34-.64,5.6v.06a.25.25,0,0,0,.24.13h0l.06,0c.08,0,.3-.08.28-.22.08-1.28.38-3.4.46-3.84.11-.87.28-1.75.48-2.62a22.89,22.89,0,0,1,1.29-3.78,17.83,17.83,0,0,1,1.88-3.22,14,14,0,0,1,1.07-1.27,4.68,4.68,0,0,1,2.55-1.52h.26A.6.6,0,0,1,164,28a2.19,2.19,0,0,1-.12.85,9,9,0,0,1-.64,1.38,21.52,21.52,0,0,0-3.14,1.87c-1.15,1-1.7,1.66-1.67,2.21l0,.1a.6.6,0,0,0,.7.45h.11a3.43,3.43,0,0,0,1.45-.61,9.69,9.69,0,0,0,1.74-1.55,16.55,16.55,0,0,0,1.68-2.35c.27-.13.65-.3,1.15-.5a13.69,13.69,0,0,1,2-.64h0a4.28,4.28,0,0,0-.21,1.21c0,1,.56,1.22,1,1.22,1,0,2.26-.66,3.61-2a12.74,12.74,0,0,0-.89,2.46v0a.42.42,0,0,0,.43.27h.15l.21-.06,0,0c.13-.21.91-1.22,2.32-3a14.18,14.18,0,0,1,1.24-1.43,11,11,0,0,0-.21,1.76c0,1.17.62,1.42,1.15,1.42a6.91,6.91,0,0,0,3.13-1.37c.2-.14.38-.26.53-.38a2.85,2.85,0,0,0-.27,1.09v.13a1.22,1.22,0,0,0,.06.35.87.87,0,0,0,.85.61h.23a7.12,7.12,0,0,0,3.14-1.57l.36-.31a3.43,3.43,0,0,0,1.19,1.13c.94.57,1.49,1.05,1.63,1.44-2.77,2.57-4.13,4.17-4.13,4.91a.59.59,0,0,0,.61.57h.12a4.1,4.1,0,0,0,2.27-1.32c1.28-1.35,1.93-2.54,1.93-3.55v-.16a3.18,3.18,0,0,0,0-.36l3.45-3.15a1.84,1.84,0,0,0,.91,1,3.51,3.51,0,0,1,1.05.82c-1.86,1.75-2.76,2.9-2.76,3.53v0c0,.16.08.36.51.45h.1a2.75,2.75,0,0,0,1.38-.69,4.3,4.3,0,0,0,1.65-2.78A2,2,0,0,0,194,31a13.43,13.43,0,0,1,2.62-1.93c.51-.14.6-.22.62-.35v-.12Zm-54.91.85a8.3,8.3,0,0,1-.61.77,2.33,2.33,0,0,1,.12-.45c.37-.75.73-1.16,1.05-1.18C142.75,28.81,142.56,29.11,142.31,29.47Zm10.4,2.1a13.59,13.59,0,0,1-1.25,1.52,3.73,3.73,0,0,1-1.84,1.21c-.21,0-.22-.07-.23-.13,0-.21.18-.65,1.12-1.48A16.82,16.82,0,0,1,153.1,31C153,31.23,152.82,31.42,152.71,31.57Zm9.66,0a13.59,13.59,0,0,1-1.25,1.52,3.73,3.73,0,0,1-1.84,1.21c-.2,0-.22-.07-.22-.13,0-.21.17-.65,1.12-1.48a16.71,16.71,0,0,1,2.58-1.7C162.61,31.23,162.48,31.42,162.37,31.57Zm23.74,3.58c-1.39,1.63-2.09,2-2.42,2,0,0-.08,0-.1-.11s.16-.58.86-1.44c.61-.7,1.5-1.59,2.64-2.67A4.63,4.63,0,0,1,186.11,35.15Zm7.23-3.5a2.7,2.7,0,0,1-.57,1.35,3.84,3.84,0,0,1-1.64,1.46.15.15,0,0,1,0-.06c0-.12.15-.5,1.09-1.6.62-.66.95-1,1.13-1.17Z"/><path class="cls-2" d="M42,25.87h0s0,0,0,0a.22.22,0,0,0,.05.08h0l8.68,3.85h0a.2.2,0,0,0,.15,0,.24.24,0,0,0,.1-.1s0,0,0,0l3.2-8.94h0a.16.16,0,0,0,0-.1v-.05h0s0-.05-.09-.07l0,0h0l-2.58-.73h0s-.06,0-.08,0l-2.14.62-4,1.73-1.9,1.11-.05.07,0,0L42,25.7h0v0a.21.21,0,0,0,0,.11Zm8.69,3.36-5-4.27L51,22.68Zm-3.75-6.79-1.33,1.74L45.73,23Zm2.61-1.11,1,.74-2.17-.24Zm-3.59,3.08,1.71-2.24,2.79.31Zm-.69.72,4.4,3.76-6.88-3Zm6.19-2.65,2.23-1.3-2.53,7.08Zm0-.5.16-1.74,1.88.54Zm-.42,0-1.14-.86,1.29-.75Zm-5.93,2.54-1.27-1,1.43-.41Zm-1.65-.77,1.37,1.08-2.28.65Zm6.46-3.11-.47.27-4,1.72-.52.15.46-.27,4-1.72Z"/><polygon class="cls-2" points="41.31 23.15 38.98 19.93 38.37 20.44 41.17 23.27 41.31 23.15"/><polygon class="cls-2" points="36.9 28.34 40.6 26.87 40.54 26.69 36.66 27.59 36.9 28.34"/><polygon class="cls-2" points="39.98 24.72 36.29 23.25 36.05 24.01 39.93 24.9 39.98 24.72"/></svg>